# xmcd
#
# Track frame offsets:
#	182
#	14275
#	27917
#	41972
#	54015
#	67012
#	81520
#	95997
#	110665
#	123805
#	146570
#	160375
#	174142
#	189190
#	203367
#	218535
#	233270
#	246147
#	259240
#	272792
#	284132
#	296802
#	309625
#
# Disc length: 4293 seconds
#
# Revision: 2
# Processed by: cddbd v1.5.2PL0 Copyright (c) Steve Scherf et al.
# Submitted via: audiograbber 1.82.02
#
DISCID=4f10c317
DTITLE=Charles Brown - 1946 (The Chronological Classics)
DYEAR=1997
DGENRE=Blues
TTITLE0=You Are My First Love
TTITLE1=Race-Track Blues
TTITLE2=Till The Real Thing Comes Along
TTITLE3=Rocks In My Bed
TTITLE4=Travelin' Blues
TTITLE5=I'll Get Along Somehow
TTITLE6=What Do You About Love?
TTITLE7=It's The Talk Of The Town
TTITLE8=Nutmeg
TTITLE9=Warsaw Concerto (Parts 1 and 2)
TTITLE10=How Deep Is The Ocean?
TTITLE11=You Left Me Forsaken
TTITLE12=So Long
TTITLE13=You Won't Let Me Go
TTITLE14=You Are My First Love
TTITLE15=You Showed Me The Way
TTITLE16=More Than You Know
TTITLE17=Sail On Blues
TTITLE18=Blue Because Of You
TTITLE19=Make Believe Land
TTITLE20=It Had To Be You
TTITLE21=If You Should Ever Leave
TTITLE22=When Your Lover Has Gone
EXTD=
EXTT0=
EXTT1=
EXTT2=
EXTT3=
EXTT4=
EXTT5=
EXTT6=
EXTT7=
EXTT8=
EXTT9=
EXTT10=
EXTT11=
EXTT12=
EXTT13=
EXTT14=
EXTT15=
EXTT16=
EXTT17=
EXTT18=
EXTT19=
EXTT20=
EXTT21=
EXTT22=
PLAYORDER=
